<svg width="17" height="23" viewBox="0 0 17 23" fill="none" xmlns="http://www.w3.org/2000/svg">
<path d="M0.917123 11.656L1.36863 20.0455C1.36863 20.0455 1.36863 20.0518 1.36863 20.0581C1.36863 20.7765 2.01612 21.3651 2.81412 21.3651H14.1821C14.9801 21.3651 15.6276 20.7765 15.6276 20.0581C15.6276 20.0518 15.6276 20.0455 15.6311 20.0455L16.0791 11.656C16.0756 10.9376 15.4281 10.3585 14.6336 10.3585H2.36262C1.56812 10.3585 0.920623 10.9376 0.917123 11.656ZM14.1821 22.0107H2.81412C1.62412 22.0107 0.658123 21.1404 0.654623 20.0676L0.203125 11.6781C0.203125 11.6781 0.203125 11.6718 0.203125 11.6655C0.203125 10.5895 1.17262 9.71289 2.36262 9.71289H14.6336C15.8236 9.71289 16.7931 10.5895 16.7931 11.6655C16.7931 11.6718 16.7931 11.6781 16.7931 11.6781L16.3416 20.0676C16.3381 21.1404 15.3721 22.0107 14.1821 22.0107Z" fill="#0B0C10"/>
<path d="M7.06258 18.7509H9.93258C9.82058 18.1306 9.56158 16.8363 9.22558 15.7761C9.18358 15.6464 9.23958 15.5103 9.36208 15.428C9.75758 15.1748 9.99558 14.7634 9.99558 14.3267C9.99558 13.5799 9.32358 12.9691 8.49758 12.9691C7.67158 12.9691 7.00308 13.5799 7.00308 14.3267C7.00308 14.7634 7.23758 15.1748 7.63308 15.428C7.75558 15.5103 7.81158 15.6464 7.76958 15.7761C7.43358 16.8363 7.17808 18.1306 7.06258 18.7509ZM10.3526 19.3965H6.64608C6.54108 19.3965 6.44308 19.3553 6.37308 19.2857C6.30658 19.2098 6.27858 19.1212 6.29258 19.0262C6.30308 18.9503 6.58308 17.254 7.02058 15.8046C6.55508 15.428 6.28908 14.8932 6.28908 14.3267C6.28908 13.2223 7.27958 12.3267 8.49758 12.3267C9.71558 12.3267 10.7061 13.2223 10.7061 14.3267C10.7061 14.8932 10.4401 15.428 9.97458 15.8046C10.4156 17.254 10.6921 18.9503 10.7026 19.0262C10.7201 19.1212 10.6886 19.2098 10.6221 19.2857C10.5556 19.3553 10.4541 19.3965 10.3526 19.3965Z" fill="#0B0C10"/>
<path d="M14.6652 10.3591C14.4692 10.3591 14.3082 10.2135 14.3082 10.0363V6.95709C14.3082 4.91273 13.6012 1.48225 8.85173 1.48225C4.09873 1.48225 3.39174 4.91273 3.39174 6.95709V7.63433C3.39174 7.81155 3.23074 7.95712 3.03474 7.95712C2.83874 7.95712 2.67773 7.81155 2.67773 7.63433V6.95709C2.67773 3.06457 4.92823 0.833496 8.85173 0.833496C12.7717 0.833496 15.0222 3.06457 15.0222 6.95709V10.0363C15.0222 10.2135 14.8612 10.3591 14.6652 10.3591Z" fill="#0B0C10"/>
</svg>
