<svg width="102" height="26" viewBox="0 0 102 26" fill="none" xmlns="http://www.w3.org/2000/svg">
<path d="M0.99 25V0.499998H3.58V22.76H17.3V25H0.99ZM31.8318 25.21C29.9885 25.21 28.2735 24.9067 26.6868 24.3C25.1235 23.67 23.7585 22.795 22.5918 21.675C21.4485 20.5317 20.5502 19.2133 19.8968 17.72C19.2668 16.2033 18.9518 14.5467 18.9518 12.75C18.9518 10.9533 19.2668 9.30833 19.8968 7.815C20.5502 6.29833 21.4485 4.98 22.5918 3.86C23.7585 2.71666 25.1235 1.84167 26.6868 1.235C28.2502 0.604999 29.9652 0.289999 31.8318 0.289999C33.6752 0.289999 35.3785 0.604999 36.9418 1.235C38.5052 1.84167 39.8585 2.705 41.0018 3.825C42.1685 4.945 43.0668 6.26333 43.6968 7.78C44.3502 9.29667 44.6768 10.9533 44.6768 12.75C44.6768 14.5467 44.3502 16.2033 43.6968 17.72C43.0668 19.2367 42.1685 20.555 41.0018 21.675C39.8585 22.795 38.5052 23.67 36.9418 24.3C35.3785 24.9067 33.6752 25.21 31.8318 25.21ZM31.8318 22.9C33.3018 22.9 34.6552 22.655 35.8918 22.165C37.1518 21.6517 38.2368 20.94 39.1468 20.03C40.0802 19.0967 40.8035 18.0233 41.3168 16.81C41.8302 15.5733 42.0868 14.22 42.0868 12.75C42.0868 11.28 41.8302 9.93833 41.3168 8.725C40.8035 7.48833 40.0802 6.415 39.1468 5.505C38.2368 4.57167 37.1518 3.86 35.8918 3.37C34.6552 2.85667 33.3018 2.6 31.8318 2.6C30.3618 2.6 28.9968 2.85667 27.7368 3.37C26.4768 3.86 25.3802 4.57167 24.4468 5.505C23.5368 6.415 22.8135 7.48833 22.2768 8.725C21.7635 9.93833 21.5068 11.28 21.5068 12.75C21.5068 14.1967 21.7635 15.5383 22.2768 16.775C22.8135 18.0117 23.5368 19.0967 24.4468 20.03C25.3802 20.94 26.4768 21.6517 27.7368 22.165C28.9968 22.655 30.3618 22.9 31.8318 22.9ZM61.2272 25.21C59.3605 25.21 57.6339 24.9067 56.0472 24.3C54.4839 23.67 53.1189 22.795 51.9522 21.675C50.8089 20.555 49.9105 19.2367 49.2572 17.72C48.6272 16.2033 48.3122 14.5467 48.3122 12.75C48.3122 10.9533 48.6272 9.29667 49.2572 7.78C49.9105 6.26333 50.8205 4.945 51.9872 3.825C53.1539 2.705 54.5189 1.84167 56.0822 1.235C57.6689 0.604999 59.3955 0.289999 61.2622 0.289999C63.1289 0.289999 64.8322 0.581665 66.3722 1.165C67.9355 1.74833 69.2655 2.635 70.3622 3.825L68.7522 5.47C67.7255 4.44333 66.5939 3.70833 65.3572 3.265C64.1205 2.82167 62.7905 2.6 61.3672 2.6C59.8505 2.6 58.4505 2.85667 57.1672 3.37C55.9072 3.86 54.7989 4.57167 53.8422 5.505C52.9089 6.415 52.1739 7.48833 51.6372 8.725C51.1239 9.93833 50.8672 11.28 50.8672 12.75C50.8672 14.1967 51.1239 15.5383 51.6372 16.775C52.1739 18.0117 52.9089 19.0967 53.8422 20.03C54.7989 20.94 55.9072 21.6517 57.1672 22.165C58.4505 22.655 59.8389 22.9 61.3322 22.9C62.7322 22.9 64.0505 22.69 65.2872 22.27C66.5472 21.85 67.7022 21.1383 68.7522 20.135L70.2222 22.095C69.0555 23.1217 67.6905 23.9033 66.1272 24.44C64.5639 24.9533 62.9305 25.21 61.2272 25.21ZM67.7372 21.78V12.75H70.2222V22.095L67.7372 21.78ZM88.2625 25.21C86.4192 25.21 84.7042 24.9067 83.1175 24.3C81.5542 23.67 80.1892 22.795 79.0225 21.675C77.8792 20.5317 76.9808 19.2133 76.3275 17.72C75.6975 16.2033 75.3825 14.5467 75.3825 12.75C75.3825 10.9533 75.6975 9.30833 76.3275 7.815C76.9808 6.29833 77.8792 4.98 79.0225 3.86C80.1892 2.71666 81.5542 1.84167 83.1175 1.235C84.6808 0.604999 86.3958 0.289999 88.2625 0.289999C90.1058 0.289999 91.8092 0.604999 93.3725 1.235C94.9358 1.84167 96.2892 2.705 97.4325 3.825C98.5992 4.945 99.4975 6.26333 100.128 7.78C100.781 9.29667 101.108 10.9533 101.108 12.75C101.108 14.5467 100.781 16.2033 100.128 17.72C99.4975 19.2367 98.5992 20.555 97.4325 21.675C96.2892 22.795 94.9358 23.67 93.3725 24.3C91.8092 24.9067 90.1058 25.21 88.2625 25.21ZM88.2625 22.9C89.7325 22.9 91.0858 22.655 92.3225 22.165C93.5825 21.6517 94.6675 20.94 95.5775 20.03C96.5108 19.0967 97.2342 18.0233 97.7475 16.81C98.2608 15.5733 98.5175 14.22 98.5175 12.75C98.5175 11.28 98.2608 9.93833 97.7475 8.725C97.2342 7.48833 96.5108 6.415 95.5775 5.505C94.6675 4.57167 93.5825 3.86 92.3225 3.37C91.0858 2.85667 89.7325 2.6 88.2625 2.6C86.7925 2.6 85.4275 2.85667 84.1675 3.37C82.9075 3.86 81.8108 4.57167 80.8775 5.505C79.9675 6.415 79.2442 7.48833 78.7075 8.725C78.1942 9.93833 77.9375 11.28 77.9375 12.75C77.9375 14.1967 78.1942 15.5383 78.7075 16.775C79.2442 18.0117 79.9675 19.0967 80.8775 20.03C81.8108 20.94 82.9075 21.6517 84.1675 22.165C85.4275 22.655 86.7925 22.9 88.2625 22.9Z" fill="#0B0C10"/>
</svg>
