<svg width="25" height="23" viewBox="0 0 25 23" fill="none" xmlns="http://www.w3.org/2000/svg">
<path d="M12.5 21.8418C15.8025 21.8418 18.7925 20.6665 20.9575 18.7676C23.1225 16.8686 24.4625 14.2461 24.4625 11.3495C24.4625 8.45287 23.1225 5.83034 20.9575 3.93142C18.7925 2.0325 15.8025 0.857184 12.5 0.857184C9.1975 0.857184 6.2075 2.0325 4.0425 3.93142C1.8775 5.83034 0.5375 8.45287 0.5375 11.3495C0.5375 14.2461 1.8775 16.8686 4.0425 18.7676C6.2075 20.6665 9.1975 21.8418 12.5 21.8418ZM21.34 19.103C19.0775 21.0853 15.9525 22.3132 12.5 22.3132C9.0475 22.3132 5.9225 21.0853 3.66 19.103C1.4 17.1186 0 14.3777 0 11.3495C0 8.3213 1.4 5.58036 3.66 3.59593C5.9225 1.61368 9.0475 0.385742 12.5 0.385742C15.9525 0.385742 19.0775 1.61368 21.34 3.59593C23.6 5.58036 25 8.3213 25 11.3495C25 14.3777 23.6 17.1186 21.34 19.103Z" fill="#0B0C10"/>
<path d="M12.5026 17.3593C10.6791 17.3593 8.12757 16.3893 8.02257 16.3494C7.87907 16.2941 7.78807 16.156 7.81257 16.0147C7.82657 15.9595 8.06107 14.6364 8.79607 13.3409C9.09007 12.8129 9.42957 12.3555 9.80057 11.9902C9.93007 11.8612 10.1576 11.849 10.3011 11.9656C10.4516 12.0792 10.4586 12.2787 10.3326 12.4077C10.0071 12.73 9.70257 13.1383 9.42957 13.6172C8.93257 14.5167 8.67357 15.4438 8.56857 15.8705C9.25807 16.113 11.1481 16.7331 12.5026 16.7331C13.8641 16.7331 15.9081 16.1068 16.6431 15.8674C16.4611 15.1552 15.8241 13.1168 14.4171 12.0761C14.2736 11.9656 14.2526 11.7661 14.3786 11.6371C14.5081 11.5021 14.7286 11.4867 14.8791 11.5972C16.7936 13.0124 17.3851 15.8889 17.4061 16.0086C17.4376 16.156 17.3466 16.2972 17.1856 16.3524C17.0736 16.3954 14.3191 17.3593 12.5026 17.3593Z" fill="#0B0C10"/>
<path d="M12.5328 12.0086C11.1398 12.0086 10.0583 10.6671 9.64883 9.4177C9.58933 9.255 9.70133 9.08001 9.89033 9.03089C10.0793 8.98485 10.2753 9.08001 10.3313 9.24271C10.6778 10.2834 11.5633 11.3824 12.5328 11.3824C13.6913 11.3824 14.8183 9.76459 14.8848 8.4906C14.8918 8.31869 15.0668 8.18362 15.2558 8.19283C15.4518 8.20204 15.6058 8.34632 15.5953 8.5213C15.5218 9.90887 14.2583 12.0086 12.5328 12.0086Z" fill="#0B0C10"/>
<path d="M12.729 5.83425C11.063 5.83425 9.70855 7.02229 9.70855 8.48354C9.70855 8.78131 9.75405 9.06681 9.81355 9.2817C10.9125 9.1589 12.6275 8.60633 13.4675 7.96166C13.702 7.78361 13.793 7.64854 13.8385 7.56565C13.9015 7.43058 14.066 7.35383 14.234 7.38146C14.3985 7.41216 14.5211 7.53802 14.5211 7.68538C14.5281 7.88185 14.521 8.08138 14.507 8.27172C14.4965 8.40372 14.4825 8.52345 14.4685 8.62475C14.976 8.53879 15.536 8.38223 15.725 8.18883C15.557 6.85959 14.262 5.83425 12.729 5.83425ZM9.54755 9.92944C9.39705 9.92944 9.26055 9.84655 9.20805 9.71762C9.11005 9.44747 8.99805 8.98085 8.99805 8.48354C8.99805 6.67846 10.6675 5.20801 12.729 5.20801C14.6715 5.20801 16.306 6.54339 16.4495 8.24716C16.4495 8.30241 16.4355 8.36074 16.411 8.40986C16.012 9.10057 14.3915 9.2817 14.073 9.31239C13.954 9.3216 13.8386 9.28169 13.7651 9.20188C13.6881 9.12513 13.6565 9.01769 13.688 8.91945C13.688 8.91638 13.7265 8.79359 13.758 8.56028C12.673 9.29705 10.7061 9.88032 9.56505 9.92944C9.56505 9.92944 9.55805 9.92944 9.54755 9.92944Z" fill="#0B0C10"/>
</svg>
